<mxfile host="app.diagrams.net" modified="2022-11-09T08:25:34.852Z" agent="5.0 (Windows NT 10.0; Win64; x64) AppleWebKit/537.36 (KHTML, like Gecko) Chrome/104.0.0.0 Safari/537.36" etag="rDysT1lPIYB5jmAKgfLN" version="20.5.1" type="github">
  <diagram id="m7NdD-nTLMYLPV9MKgGj" name="第 1 页">
    <mxGraphModel dx="1125" dy="622" grid="1" gridSize="10" guides="1" tooltips="1" connect="1" arrows="1" fold="1" page="1" pageScale="1" pageWidth="827" pageHeight="1169" math="0" shadow="0">
      <root>
        <mxCell id="0" />
        <mxCell id="1" parent="0" />
        <mxCell id="qy0qOpct_8eRe8Y1nv4N-22" style="edgeStyle=orthogonalEdgeStyle;rounded=0;orthogonalLoop=1;jettySize=auto;html=1;exitX=1;exitY=0.5;exitDx=0;exitDy=0;entryX=-0.024;entryY=0.1;entryDx=0;entryDy=0;entryPerimeter=0;" edge="1" parent="1" source="qy0qOpct_8eRe8Y1nv4N-1" target="qy0qOpct_8eRe8Y1nv4N-11">
          <mxGeometry relative="1" as="geometry" />
        </mxCell>
        <mxCell id="qy0qOpct_8eRe8Y1nv4N-23" style="edgeStyle=orthogonalEdgeStyle;rounded=0;orthogonalLoop=1;jettySize=auto;html=1;exitX=1;exitY=0.5;exitDx=0;exitDy=0;entryX=0;entryY=0.5;entryDx=0;entryDy=0;" edge="1" parent="1" source="qy0qOpct_8eRe8Y1nv4N-1" target="qy0qOpct_8eRe8Y1nv4N-14">
          <mxGeometry relative="1" as="geometry" />
        </mxCell>
        <mxCell id="qy0qOpct_8eRe8Y1nv4N-24" style="edgeStyle=orthogonalEdgeStyle;rounded=0;orthogonalLoop=1;jettySize=auto;html=1;exitX=1;exitY=0.5;exitDx=0;exitDy=0;entryX=-0.006;entryY=-0.122;entryDx=0;entryDy=0;entryPerimeter=0;" edge="1" parent="1" source="qy0qOpct_8eRe8Y1nv4N-1" target="qy0qOpct_8eRe8Y1nv4N-21">
          <mxGeometry relative="1" as="geometry" />
        </mxCell>
        <mxCell id="qy0qOpct_8eRe8Y1nv4N-1" value="&lt;b&gt;分类过滤器&lt;br&gt;index_cal_name&lt;/b&gt;" style="rounded=0;whiteSpace=wrap;html=1;" vertex="1" parent="1">
          <mxGeometry x="300" y="220" width="110" height="220" as="geometry" />
        </mxCell>
        <object label="明细数据 100条 " placeholders="1" id="qy0qOpct_8eRe8Y1nv4N-2">
          <mxCell style="swimlane;fontStyle=0;childLayout=stackLayout;horizontal=1;startSize=30;horizontalStack=0;resizeParent=1;resizeParentMax=0;resizeLast=0;collapsible=1;marginBottom=0;" vertex="1" parent="1">
            <mxGeometry x="140" y="255" width="100" height="180" as="geometry" />
          </mxCell>
        </object>
        <mxCell id="qy0qOpct_8eRe8Y1nv4N-3" value="Item 1" style="text;strokeColor=none;fillColor=none;align=left;verticalAlign=middle;spacingLeft=4;spacingRight=4;overflow=hidden;points=[[0,0.5],[1,0.5]];portConstraint=eastwest;rotatable=0;" vertex="1" parent="qy0qOpct_8eRe8Y1nv4N-2">
          <mxGeometry y="30" width="100" height="30" as="geometry" />
        </mxCell>
        <mxCell id="qy0qOpct_8eRe8Y1nv4N-4" value="Item 2" style="text;strokeColor=none;fillColor=none;align=left;verticalAlign=middle;spacingLeft=4;spacingRight=4;overflow=hidden;points=[[0,0.5],[1,0.5]];portConstraint=eastwest;rotatable=0;" vertex="1" parent="qy0qOpct_8eRe8Y1nv4N-2">
          <mxGeometry y="60" width="100" height="30" as="geometry" />
        </mxCell>
        <mxCell id="qy0qOpct_8eRe8Y1nv4N-5" value="Item 3" style="text;strokeColor=none;fillColor=none;align=left;verticalAlign=middle;spacingLeft=4;spacingRight=4;overflow=hidden;points=[[0,0.5],[1,0.5]];portConstraint=eastwest;rotatable=0;" vertex="1" parent="qy0qOpct_8eRe8Y1nv4N-2">
          <mxGeometry y="90" width="100" height="30" as="geometry" />
        </mxCell>
        <mxCell id="qy0qOpct_8eRe8Y1nv4N-26" value="......" style="text;strokeColor=none;fillColor=none;align=left;verticalAlign=middle;spacingLeft=4;spacingRight=4;overflow=hidden;points=[[0,0.5],[1,0.5]];portConstraint=eastwest;rotatable=0;" vertex="1" parent="qy0qOpct_8eRe8Y1nv4N-2">
          <mxGeometry y="120" width="100" height="30" as="geometry" />
        </mxCell>
        <mxCell id="qy0qOpct_8eRe8Y1nv4N-25" value="item 100" style="text;strokeColor=none;fillColor=none;align=left;verticalAlign=middle;spacingLeft=4;spacingRight=4;overflow=hidden;points=[[0,0.5],[1,0.5]];portConstraint=eastwest;rotatable=0;" vertex="1" parent="qy0qOpct_8eRe8Y1nv4N-2">
          <mxGeometry y="150" width="100" height="30" as="geometry" />
        </mxCell>
        <mxCell id="qy0qOpct_8eRe8Y1nv4N-6" style="edgeStyle=orthogonalEdgeStyle;rounded=0;orthogonalLoop=1;jettySize=auto;html=1;exitX=1;exitY=0.5;exitDx=0;exitDy=0;" edge="1" parent="1" source="qy0qOpct_8eRe8Y1nv4N-4" target="qy0qOpct_8eRe8Y1nv4N-1">
          <mxGeometry relative="1" as="geometry" />
        </mxCell>
        <mxCell id="qy0qOpct_8eRe8Y1nv4N-37" style="edgeStyle=orthogonalEdgeStyle;rounded=0;orthogonalLoop=1;jettySize=auto;html=1;entryX=0;entryY=0.135;entryDx=0;entryDy=0;entryPerimeter=0;" edge="1" parent="1" source="qy0qOpct_8eRe8Y1nv4N-10" target="qy0qOpct_8eRe8Y1nv4N-30">
          <mxGeometry relative="1" as="geometry" />
        </mxCell>
        <mxCell id="qy0qOpct_8eRe8Y1nv4N-10" value="明细数据 20条" style="swimlane;fontStyle=1;childLayout=stackLayout;horizontal=1;startSize=30;horizontalStack=0;resizeParent=1;resizeParentMax=0;resizeLast=0;collapsible=1;marginBottom=0;" vertex="1" parent="1">
          <mxGeometry x="480" y="220" width="140" height="60" as="geometry" />
        </mxCell>
        <mxCell id="qy0qOpct_8eRe8Y1nv4N-11" value="Item 1" style="text;strokeColor=none;fillColor=none;align=left;verticalAlign=middle;spacingLeft=4;spacingRight=4;overflow=hidden;points=[[0,0.5],[1,0.5]];portConstraint=eastwest;rotatable=0;fontStyle=1" vertex="1" parent="qy0qOpct_8eRe8Y1nv4N-10">
          <mxGeometry y="30" width="140" height="30" as="geometry" />
        </mxCell>
        <mxCell id="qy0qOpct_8eRe8Y1nv4N-35" style="edgeStyle=orthogonalEdgeStyle;rounded=0;orthogonalLoop=1;jettySize=auto;html=1;entryX=0;entryY=0.5;entryDx=0;entryDy=0;" edge="1" parent="1" source="qy0qOpct_8eRe8Y1nv4N-14" target="qy0qOpct_8eRe8Y1nv4N-30">
          <mxGeometry relative="1" as="geometry" />
        </mxCell>
        <mxCell id="qy0qOpct_8eRe8Y1nv4N-14" value="明细数据 30条" style="swimlane;fontStyle=1;childLayout=stackLayout;horizontal=1;startSize=30;horizontalStack=0;resizeParent=1;resizeParentMax=0;resizeLast=0;collapsible=1;marginBottom=0;" vertex="1" parent="1">
          <mxGeometry x="480" y="300" width="140" height="60" as="geometry" />
        </mxCell>
        <mxCell id="qy0qOpct_8eRe8Y1nv4N-16" value="Item 2" style="text;strokeColor=none;fillColor=none;align=left;verticalAlign=middle;spacingLeft=4;spacingRight=4;overflow=hidden;points=[[0,0.5],[1,0.5]];portConstraint=eastwest;rotatable=0;fontStyle=1" vertex="1" parent="qy0qOpct_8eRe8Y1nv4N-14">
          <mxGeometry y="30" width="140" height="30" as="geometry" />
        </mxCell>
        <mxCell id="qy0qOpct_8eRe8Y1nv4N-36" style="edgeStyle=orthogonalEdgeStyle;rounded=0;orthogonalLoop=1;jettySize=auto;html=1;entryX=0;entryY=0.866;entryDx=0;entryDy=0;entryPerimeter=0;" edge="1" parent="1" source="qy0qOpct_8eRe8Y1nv4N-18" target="qy0qOpct_8eRe8Y1nv4N-30">
          <mxGeometry relative="1" as="geometry" />
        </mxCell>
        <mxCell id="qy0qOpct_8eRe8Y1nv4N-18" value="明细数据 50条" style="swimlane;fontStyle=1;childLayout=stackLayout;horizontal=1;startSize=30;horizontalStack=0;resizeParent=1;resizeParentMax=0;resizeLast=0;collapsible=1;marginBottom=0;" vertex="1" parent="1">
          <mxGeometry x="480" y="380" width="140" height="60" as="geometry" />
        </mxCell>
        <mxCell id="qy0qOpct_8eRe8Y1nv4N-21" value="Item 3" style="text;strokeColor=none;fillColor=none;align=left;verticalAlign=middle;spacingLeft=4;spacingRight=4;overflow=hidden;points=[[0,0.5],[1,0.5]];portConstraint=eastwest;rotatable=0;fontStyle=1" vertex="1" parent="qy0qOpct_8eRe8Y1nv4N-18">
          <mxGeometry y="30" width="140" height="30" as="geometry" />
        </mxCell>
        <mxCell id="qy0qOpct_8eRe8Y1nv4N-29" style="edgeStyle=orthogonalEdgeStyle;rounded=0;orthogonalLoop=1;jettySize=auto;html=1;exitX=1;exitY=0.5;exitDx=0;exitDy=0;entryX=0;entryY=0.5;entryDx=0;entryDy=0;" edge="1" parent="1" source="qy0qOpct_8eRe8Y1nv4N-27" target="qy0qOpct_8eRe8Y1nv4N-28">
          <mxGeometry relative="1" as="geometry" />
        </mxCell>
        <mxCell id="qy0qOpct_8eRe8Y1nv4N-27" value="value" style="ellipse;whiteSpace=wrap;html=1;fontStyle=1" vertex="1" parent="1">
          <mxGeometry x="110" y="520" width="120" height="80" as="geometry" />
        </mxCell>
        <mxCell id="qy0qOpct_8eRe8Y1nv4N-28" value="&lt;b&gt;分类过滤器&lt;/b&gt;" style="rounded=0;whiteSpace=wrap;html=1;" vertex="1" parent="1">
          <mxGeometry x="300" y="450" width="90" height="220" as="geometry" />
        </mxCell>
        <mxCell id="qy0qOpct_8eRe8Y1nv4N-30" value="&lt;b&gt;统计&lt;/b&gt;" style="rounded=0;whiteSpace=wrap;html=1;" vertex="1" parent="1">
          <mxGeometry x="680" y="220" width="60" height="220" as="geometry" />
        </mxCell>
      </root>
    </mxGraphModel>
  </diagram>
</mxfile>
